<svg xmlns="http://www.w3.org/2000/svg" width="46" height="46" viewBox="0 0 46 46"><defs><style>.a{fill:#13171d;opacity:0.188;}.b{fill:#fff;}</style></defs><g transform="translate(-1296 -1030)"><circle class="a" cx="23" cy="23" r="23" transform="translate(1296 1030)"/><path class="b" d="M62.8,2.209v19l-4.33-2.928c-.037-.023-.074-.051-.116-.074a4.07,4.07,0,0,0-2.031-.541A4.132,4.132,0,0,0,54.3,18.2a.984.984,0,0,0-.116.074L49.851,21.2v-19Zm.477-1.85H49.374A1.406,1.406,0,0,0,48,1.793V22.051a1.408,1.408,0,0,0,1.379,1.439,1.3,1.3,0,0,0,.662-.18l5.181-3.5a2.23,2.23,0,0,1,2.221,0l5.181,3.5a1.3,1.3,0,0,0,.662.18,1.408,1.408,0,0,0,1.379-1.439V1.8A1.421,1.421,0,0,0,63.281.359Z" transform="translate(1262.668 1041.075)"/></g></svg>