<svg xmlns="http://www.w3.org/2000/svg" width="492" height="149.063" viewBox="0 0 492 149.063"><defs><style>.a{fill:#fff;fill-rule:evenodd;}</style></defs><g transform="translate(-252.837 -626.824)"><g transform="translate(252.837 674.961)"><path class="a" d="M301.688,702.545c2.193-.466,8.688.417,10.615.805a45.182,45.182,0,0,1,16.151,6.622,46.758,46.758,0,0,1,9.22,7.935,45.928,45.928,0,0,1,10.185,18.377,38.365,38.365,0,0,1,1.558,9.823c-.01,1.779.16,3.767-.021,5.43s-.381,3.329-.728,5.043A41.261,41.261,0,0,1,346,765.3c-1.755,3.922-4.732,9.259-7.685,12.36-4.532,4.758-8.018,8.035-14.393,11.27a44.178,44.178,0,0,1-37.4,1.315c-5.453-2.248-12.828-7.215-16.686-11.878-.5-.6-.866-.971-1.321-1.56-4.234-5.447-6.873-9.919-8.831-16.836a41.288,41.288,0,0,1-1.055-4.719c-.362-2.173-.3-3.42-.522-5.094-.75-5.594,1.325-14.185,3.454-19.253a48.39,48.39,0,0,1,7.7-12.348c7.636-8.238,16.017-13.577,27.365-15.46l5.058-.555Zm4.907,96.01a57.8,57.8,0,0,0,10.3-1.729,46.014,46.014,0,0,0,8.735-3.295,56,56,0,0,0,7.561-4.476,54.981,54.981,0,0,0,7.931-6.979c.521-.515.945-1.062,1.442-1.607,5.93-6.537,9.891-15.52,11.5-24.263l.647-5.285a53.008,53.008,0,0,0-.306-8.516,49.53,49.53,0,0,0-7.048-20.061,50.629,50.629,0,0,0-8-9.961,51.528,51.528,0,0,0-14.186-9.883,48.893,48.893,0,0,0-8.805-3.214,47.892,47.892,0,0,0-17.969-1.319,49.257,49.257,0,0,0-16.236,4.619,52.742,52.742,0,0,0-24.146,23.64c-2.377,4.681-4.7,12-4.995,17.475-.033.615-.159.784-.157,1.284a58.964,58.964,0,0,0,.3,9.008,51.028,51.028,0,0,0,18.162,32.683c5.987,4.766,11.83,8.177,19.471,10.2C297.143,798.553,300.182,798.555,306.595,798.555Z" transform="translate(-252.837 -697.652)"/></g><g transform="translate(626.096 676.182)"><path class="a" d="M807.022,704.34h15.555a35.791,35.791,0,0,1,9.089,1.66,17.391,17.391,0,0,1,6.509,4.235c5.95,5.945,7.222,17.074,3.705,24.636-2.407,5.177-6,8.145-11.483,9.84a30.868,30.868,0,0,1-6.85,1.172c-.8.016-1.9.156-2.413.157H807.022v-41.7Zm18.285,46.194a28.254,28.254,0,0,0,6.447-1.255,22.714,22.714,0,0,0,13.058-9.556c4.133-6.459,5.263-16.218,2.246-24.74A22.536,22.536,0,0,0,840.9,705.9a24.156,24.156,0,0,0-9.884-5.193c-6.262-1.712-21.6-1.18-28.973-1.18v98.322h4.976L807,750.855H819.53c.493.116,14.5,22.593,15.107,23.545,2.994,4.715,6.282,10.154,9.318,14.743l3.738,5.885c2.333,3.62.718,2.821,7.345,2.821-.164-.7-3.039-4.98-3.671-6.013C847.971,786.3,825.726,751.606,825.306,750.534Z" transform="translate(-802.046 -699.449)"/></g><path class="a" d="M516.25,745.778l.537,9.734a43.893,43.893,0,0,0,1.021,5.07,51.752,51.752,0,0,0,3.152,8.868,49.127,49.127,0,0,0,9.927,14.139c8.728,8.728,18.142,13.039,30.388,14.685a9.657,9.657,0,0,0,1.332.112c.7.015.91.158,1.442.158h5.614c.56,0,1.36-.132,2.091-.158a72.353,72.353,0,0,0,13.786-2.736,60.715,60.715,0,0,0,6.7-2.6c.932-.421,1.013-1.176,1.661-2.985a22.911,22.911,0,0,0,1.263-3.552,85.375,85.375,0,0,1-11.68,4.517,68.413,68.413,0,0,1-9.886,2.142,50.274,50.274,0,0,1-12.328.127c-11.239-1.529-21.9-6.775-29.07-15.522a48.249,48.249,0,0,1-3.584-4.746c-10.23-15.121-9.732-36.626.894-51.205a45.23,45.23,0,0,1,31.425-18.936c.6-.085,1.8-.232,2.468-.262.47-.02.975.025,1.447,0a17.133,17.133,0,0,1,2.245-.158,48.9,48.9,0,0,1,5.035.421c8.485,1.267,18.478,4.948,25.419,10.021a17.112,17.112,0,0,0,1.624,1.106l-1.27-3.226c-.456-1.161-.893-2.124-1.363-3.284a3.251,3.251,0,0,0-.8-1.452,46.17,46.17,0,0,0-4.483-2.41c-9.468-4.588-19.578-6.964-30.595-5.683a50.578,50.578,0,0,0-34.832,20.511,51.314,51.314,0,0,0-6.444,12,44.794,44.794,0,0,0-2.048,7.088c-.264,1.318-.462,2.568-.659,4Z" transform="translate(-84.39 -22.681)"/><path class="a" d="M649.642,792.614c.61,0,.774-.806.953-1.246l14.321-32.513c.46-1.108.883-1.914,1.331-2.988L689.3,703.52c.371-.9,3.65-8.644,4.135-9.011l8.019,18.444c.9,1.889,1.887,4.178,2.717,6.106,3.5,8.152,7.25,16.4,10.765,24.522l20.2,45.878a19.918,19.918,0,0,1,1.284,3.051h4.974c-.217-.941-9.324-21.258-10.487-24-3.357-7.914-7.146-15.941-10.486-23.842l-6.03-13.688c-1.888-4.222-4.065-9.528-5.984-13.593-.577-1.221-.977-2.237-1.507-3.465l-12.019-27.276c-.239-.555-.5-1.1-.742-1.671a12.482,12.482,0,0,1-.7-1.7h-.323c-.048.6-5.538,12.832-5.944,13.783-.965,2.245-2.078,4.552-3.052,6.886l-6.032,13.7c-2.377,5.569-5.238,11.547-7.51,17.029L648.06,785.8c-.29.651-2.927,6.2-2.812,6.783Z" transform="translate(-125.716 -18.087)"/><path class="a" d="M901.108,719.972a18.034,18.034,0,0,1,1.7-7.123c4.173-8.794,13.7-11.711,22.77-9.81a34.113,34.113,0,0,1,13.16,6.406c.7.552,3.763,3.145,4.389,3.31-.438-.915-.857-2.246-1.229-3.27l-1.838-4.732-1.106-.974a29.985,29.985,0,0,0-8.595-4.561c-4.494-1.524-6.681-1.542-11.132-1.542a25.074,25.074,0,0,0-15.913,6.221,23.14,23.14,0,0,0-4.774,6.3,22.051,22.051,0,0,0-1.532,3.916,22.394,22.394,0,0,0,.235,13.574,21.786,21.786,0,0,0,4.457,7.258,38.658,38.658,0,0,0,9.891,7.585c1.31.756,2.532,1.359,3.786,1.987,6.041,3.021,13.436,6.378,18.852,10.345,4.242,3.109,8.518,7.435,9.573,13.683,1.161,6.893-2.212,13.839-5.61,17.233a25.478,25.478,0,0,1-15.581,7.677c-11.894,1.51-21.43-3.94-27.331-12.8a26.136,26.136,0,0,0-2.359-3.417c-1.951,5.506-2.562,4.645-1.3,6.607.4.623.832,1.214,1.249,1.8a31.764,31.764,0,0,0,8.041,7.665,32.117,32.117,0,0,0,6.183,3.129,30.174,30.174,0,0,0,7.611,1.856c3.875.5,3.828.258,7.248.118l4.442-.689c8.369-1.844,15.842-6.717,19.892-14.278,2.937-5.486,3.985-12.611,1.876-18.777-7.237-21.177-38.776-21.722-45.846-37.711A14.42,14.42,0,0,1,901.108,719.972Z" transform="translate(-204.437 -22.699)"/><path class="a" d="M470.835,770.623a25.55,25.55,0,0,0-.548-3.786c-1.485-7.158-6.661-12.776-12.444-16.745-4.341-2.979-6.378-3.766-10.768-6.078-10.784-5.678-25.728-10.451-24.337-25.5a17.63,17.63,0,0,1,10.631-14.388,20.612,20.612,0,0,1,9.395-1.671c11.056,0,20.628,9.829,21.815,10.265l-2.36-6.465c-.684-1.743-.349-1.442-1.786-2.543a28.427,28.427,0,0,0-8.625-4.528,26.654,26.654,0,0,0-3.389-.943,29.068,29.068,0,0,0-13.47.251,22.654,22.654,0,0,0-16.626,16.412,21.625,21.625,0,0,0,.2,11.951c2.733,8.51,10.693,13.964,18.44,17.659,8.143,3.883,20.274,9.411,25.316,16.7,4.422,6.4,4.189,13.5.6,20.2-3.728,6.963-11.881,11.54-19.637,12.128a29.159,29.159,0,0,1-11.812-1.315,27.23,27.23,0,0,1-9.872-6.015c-1.832-1.852-6.356-7.148-6.856-9.022h-.321a33.588,33.588,0,0,1-1.7,4.564c-.4.992.112,1.43.578,2.17,5.114,8.113,13.209,12.89,22.753,14.3a28.307,28.307,0,0,0,5.635.3c.549,0,.916-.145,1.6-.158a34.691,34.691,0,0,0,9.806-2.229,28.521,28.521,0,0,0,14.743-12.685,23.079,23.079,0,0,0,2.035-4.849A25.785,25.785,0,0,0,470.835,770.623Z" transform="translate(-51.162 -22.666)"/><path class="a" d="M710.292,765.764c0-.121,2.37-6.257-1.768-6.257s-1.764,6.246-1.764,6.257c0,2.717-4.813,1.463-4.813,4.974,0,3.174,0,2.806.878,6.346.365,1.473.593,2.665,2.169,2.8,0,1.083-.48,2.246-.48,3.367a20.142,20.142,0,0,0,.417,5.517,26.234,26.234,0,0,1,.7,2.983,9.611,9.611,0,0,1-.16,1.765v3.047c0,1.628.962,3.834.962,8.18,0,3.552-4.524.5-5.773,3.83l-4.33.019-.292.5c-.1.216-.141.334-.241.565-.5,1.161-3,6.664-2.939,7.354,9.768.226,21.286-.033,31.326.022.041-.676-1.28-3.469-1.655-4.329-.338-.763-1.539-4.008-1.979-4.117h-4.008c-1.194-1.192-.608-1.664-3.045-1.77-1.52-.063-2.89-.332-2.89-1.919a17.122,17.122,0,0,1,.473-5.3,18.078,18.078,0,0,0,.489-5.769c0-.445-.16-.581-.16-.963,0-2.834,1.123-4.731,1.123-6.576,0-1.619.034-4.844-.58-6.191.512-.437,1.216-.469,1.63-1.1a8.058,8.058,0,0,0,.65-2.073,16.988,16.988,0,0,0,.866-6.191C715.1,767.245,710.287,768.512,710.292,765.764Z" transform="translate(-140.971 -42.508)"/><path class="a" d="M619.619,645.8h1.926v-9.3h9.623v9.3c1.471,0,2.086.2,2.086-.482V626.877h-2.086v7.7h-9.632l.01-7.7h-1.926Z" transform="translate(-117.506 -0.017)"/><path class="a" d="M648.885,645.788h8.5c.593,0,.917-1.378.964-1.927H650.81v-7.375h7.056l-.034-1.831-7.022-.048.009-5.916,8.814-.067c-.178-2.125-.891-1.774-1.265-1.783l-9.482.019Z" transform="translate(-126.882)"/><path class="a" d="M595.075,628.643h4.492V645.8l2.032-.041c.167-1.523.056-14.507.054-17.121h4.49v-1.766H595.716A12.836,12.836,0,0,1,595.075,628.643Z" transform="translate(-109.643 -0.017)"/></g></svg>